<svg width="9" height="9" viewBox="0 0 9 9" fill="none" xmlns="http://www.w3.org/2000/svg">
<g clip-path="url(#clip0_2_4977)">
<path d="M11.461 13.085C11.01 13.076 10.652 12.918 10.386 12.644L1.049 3.04401C0.790109 2.77416 0.63924 2.4187 0.625 2.04501V1.93701C0.64 1.55101 0.791 1.19601 1.049 0.929012C1.609 0.356012 2.578 0.359012 3.131 0.929012L11.425 9.45901L19.717 0.927012C20.275 0.357012 21.243 0.357012 21.797 0.927012C22.062 1.19701 22.213 1.55601 22.225 1.93701V2.02401C22.213 2.41501 22.06 2.77401 21.798 3.04401L12.465 12.644C12.2014 12.9174 11.8407 13.0759 11.461 13.085Z" fill="#3665F3"/>
</g>
<defs>
<clipPath id="clip0_2_4977">
<rect width="21.6" height="12.58" fill="white" transform="translate(0.625 0.5)"/>
</clipPath>
</defs>
</svg>
