<svg width="15" height="16" viewBox="0 0 15 16" fill="none" xmlns="http://www.w3.org/2000/svg">
<g clip-path="url(#clip0_2_4965)">
<path d="M0.34668 5.92C0.34668 4.12783 0.34668 3.23174 0.695459 2.54722C1.00225 1.9451 1.49179 1.45556 2.09391 1.14877C2.77844 0.799988 3.67452 0.799988 5.46669 0.799988H9.6267C11.4189 0.799988 12.3149 0.799988 12.9995 1.14877C13.6016 1.45556 14.0911 1.9451 14.3979 2.54722C14.7467 3.23174 14.7467 4.12783 14.7467 5.92V10.08C14.7467 11.8722 14.7467 12.7682 14.3979 13.4528C14.0911 14.0549 13.6016 14.5444 12.9995 14.8512C12.3149 15.2 11.4189 15.2 9.6267 15.2H5.46669C3.67452 15.2 2.77844 15.2 2.09391 14.8512C1.49179 14.5444 1.00225 14.0549 0.695459 13.4528C0.34668 12.7682 0.34668 11.8722 0.34668 10.08V5.92ZM12.1147 4.23199C11.8027 3.92182 11.2987 3.92182 10.9867 4.23199L5.94669 9.272L4.11469 7.432C3.80099 7.1183 3.29238 7.1183 2.97868 7.432C2.66499 7.7457 2.66499 8.2543 2.97868 8.568L5.37869 10.968C5.69072 11.2782 6.19466 11.2782 6.50669 10.968L12.1067 5.368C12.2592 5.21885 12.3458 5.01497 12.3473 4.80166C12.3489 4.58835 12.2651 4.38327 12.1147 4.23199Z" fill="#191919"/>
</g>
<defs>
<clipPath id="clip0_2_4965">
<rect width="14.4" height="14.4" fill="white" transform="translate(0.34668 0.799988)"/>
</clipPath>
</defs>
</svg>
