<svg width="15" height="14" viewBox="0 0 15 14" fill="none" xmlns="http://www.w3.org/2000/svg">
<g clip-path="url(#clip0_2_2698)">
<path d="M20.3485 18.557L15.2555 13.464C16.4724 12.0012 17.1355 10.1568 17.1285 8.254C17.0695 3.747 13.3825 0 8.8165 0C4.2505 0 0.5625 3.746 0.5625 8.254C0.5625 12.762 4.2505 16.566 8.8165 16.566C10.8655 16.566 12.6795 15.805 14.1435 14.634L19.2365 19.727C19.3032 19.8005 19.3846 19.8593 19.4753 19.8996C19.5661 19.9399 19.6642 19.9608 19.7635 19.961C19.9395 19.961 20.1735 19.902 20.2905 19.727C20.6415 19.376 20.6415 18.849 20.3495 18.556L20.3485 18.557ZM2.1435 8.254C2.14311 7.37758 2.31544 6.50967 2.65065 5.69989C2.98586 4.8901 3.47737 4.15432 4.0971 3.5346C4.71682 2.91487 5.4526 2.42336 6.26239 2.08815C7.07217 1.75294 7.94008 1.58061 8.8165 1.581C9.69292 1.58061 10.5608 1.75294 11.3706 2.08815C12.1804 2.42336 12.9162 2.91487 13.5359 3.5346C14.1556 4.15432 14.6471 4.8901 14.9824 5.69989C15.3176 6.50967 15.4899 7.37758 15.4895 8.254C15.4895 11.942 12.5045 14.986 8.8165 14.986C5.1285 14.986 2.1435 12.001 2.1435 8.254Z" fill="#767676"/>
</g>
<defs>
<clipPath id="clip0_2_2698">
<rect width="20" height="20" fill="white" transform="translate(0.5625)"/>
</clipPath>
</defs>
</svg>
