<svg width="14" height="8" viewBox="0 0 14 8" fill="none" xmlns="http://www.w3.org/2000/svg">
<g clip-path="url(#clip0_2_15)">
<path d="M7.20319 7.72229C7.10814 7.72288 7.0139 7.70468 6.9259 7.66873C6.8379 7.63279 6.75787 7.57981 6.69041 7.51284L0.915525 1.73796C0.779527 1.60196 0.703125 1.41751 0.703125 1.22518C0.703125 1.03285 0.779527 0.848397 0.915525 0.7124C1.05152 0.576402 1.23597 0.5 1.4283 0.5C1.62063 0.5 1.80508 0.576402 1.94108 0.7124L7.20319 5.98245L12.466 0.7124C12.602 0.576402 12.7865 0.5 12.9788 0.5C13.1711 0.5 13.3556 0.576402 13.4916 0.7124C13.6276 0.848397 13.704 1.03285 13.704 1.22518C13.704 1.41751 13.6276 1.60196 13.4916 1.73796L7.71597 7.51284C7.64851 7.57981 7.56848 7.63279 7.48048 7.66873C7.39248 7.70468 7.29825 7.72288 7.20319 7.72229Z" fill="black"/>
</g>
<defs>
<clipPath id="clip0_2_15">
<rect width="13" height="7.22222" fill="white" transform="translate(0.703125 0.5)"/>
</clipPath>
</defs>
</svg>
